<?xml version="1.0" encoding="UTF-8"?>
<svg version="1.1" xmlns="http://www.w3.org/2000/svg" width="615" height="711">
<path d="M0 0 C0.99 0 1.98 0 3 0 C3.37511719 0.71285156 3.75023437 1.42570312 4.13671875 2.16015625 C6.76983713 7.08813347 9.42730466 11.77578435 12.77734375 16.24609375 C14.69135356 18.99174999 16.22490685 21.93161931 17.7890625 24.88671875 C18.96925584 27.05274235 18.96925584 27.05274235 20.57421875 29.06640625 C22.4003567 31.54294949 23.13366441 34.06778725 24 37 C24.66 37 25.32 37 26 37 C28.17041484 42.29725629 28.29173784 46.97290511 28.265625 52.59765625 C28.26753845 53.50954208 28.2694519 54.42142792 28.27142334 55.36094666 C28.27277965 57.28140541 28.26912206 59.2018735 28.26074219 61.12231445 C28.25002243 64.0563621 28.26066269 66.98979923 28.2734375 69.92382812 C28.27211605 71.79427218 28.26955395 73.66471586 28.265625 75.53515625 C28.26967346 76.40922623 28.27372192 77.2832962 28.27789307 78.18385315 C28.20409522 87.79590478 28.20409522 87.79590478 25 91 C25.99114304 91.00142502 26.98228607 91.00285004 28.00346375 91.00431824 C37.34688229 91.02099219 46.68986552 91.06377778 56.0330534 91.13209057 C60.83647078 91.16637261 65.63956972 91.19147243 70.44311523 91.19555664 C75.07940881 91.199837 79.71498386 91.22827767 84.35105324 91.27343178 C86.11921821 91.28641522 87.88746913 91.29071145 89.65567589 91.28615379 C92.13411281 91.28125358 94.61044497 91.30731118 97.08862305 91.34057617 C97.81870575 91.33195053 98.54878845 91.32332489 99.30099487 91.31443787 C103.08888885 91.39959501 104.89310419 91.92019332 107.95799255 94.20838928 C110.20855617 97.28511534 110.61684155 98.57430858 110.58349609 102.32519531 C110.58634613 103.36266907 110.58919617 104.40014282 110.59213257 105.46905518 C110.55812851 107.13179474 110.55812851 107.13179474 110.5234375 108.828125 C110.51873444 109.97287292 110.51403137 111.11762085 110.50918579 112.29705811 C110.48785092 115.9486529 110.43120937 119.59879313 110.375 123.25 C110.35849409 125.72394473 110.34414571 128.19790487 110.33203125 130.671875 C110.29804867 135.17889639 110.26350411 139.68577487 110.19287109 144.19238281 C110.17358047 145.55209198 110.17358047 145.55209198 110.15390015 146.93927002 C110 149 110 149 109 150 C105.98649762 150.09529612 102.99595894 150.12551904 99.98217773 150.11352539 C99.03593536 150.11367142 98.08969299 150.11381744 97.11477661 150.1139679 C93.97102608 150.11326836 90.82733399 150.10547409 87.68359375 150.09765625 C85.51025932 150.09579221 83.33692448 150.09436824 81.16358948 150.09336853 C75.43098805 150.08954221 69.69841177 150.07971097 63.96582031 150.06866455 C57.0942868 150.05665886 50.2227449 150.05204873 43.35120392 150.04621124 C32.90078509 150.03649927 22.45042151 150.0173435 12 150 C12 171.78 12 193.56 12 216 C18.99058594 215.98839844 25.98117188 215.97679687 33.18359375 215.96484375 C37.5996103 215.95973712 42.01562323 215.95492336 46.43164062 215.95117188 C53.44833121 215.94518295 60.46500881 215.93808134 67.48168945 215.92456055 C73.13561712 215.9137333 78.78953087 215.90772351 84.44346809 215.90512276 C86.6057361 215.90326821 88.76800331 215.89964705 90.93026543 215.89426994 C93.94758657 215.88706167 96.96484943 215.88600897 99.98217773 215.88647461 C101.33731728 215.8810817 101.33731728 215.8810817 102.71983337 215.87557983 C108.88594784 215.88594784 108.88594784 215.88594784 110 217 C110.12042601 219.03366641 110.17025147 221.07153928 110.19287109 223.10864258 C110.20893402 224.41702591 110.22499695 225.72540924 110.24154663 227.07344055 C110.25303306 228.51379754 110.26364178 229.95416177 110.2734375 231.39453125 C110.27876118 232.11677069 110.28408485 232.83901012 110.28956985 233.5831356 C110.31632018 237.40673131 110.33568795 241.23029418 110.35009766 245.05395508 C110.36674023 249.00545103 110.41150771 252.95611203 110.4624691 256.90729237 C110.49611694 259.94334375 110.50767233 262.97919654 110.51332474 266.0154171 C110.52004545 267.47191427 110.53528913 268.92839799 110.55921555 270.38471413 C110.59080431 272.42397211 110.58790683 274.46367597 110.58349609 276.50317383 C110.59158295 277.66375809 110.5996698 278.82434235 110.60800171 280.02009583 C110 283 110 283 107.98193645 285.15533924 C104.1765962 287.50936722 101.01845576 287.55194194 96.68101501 287.49447632 C95.84652047 287.49930515 95.01202593 287.50413398 94.15224367 287.50910914 C91.35760579 287.52037568 88.56388383 287.50306449 85.76928711 287.48583984 C83.76521049 287.4879858 81.76113509 287.49186364 79.75706482 287.49734497 C74.31499463 287.5070424 68.87325227 287.49173032 63.43122172 287.47143888 C57.73959774 287.45387952 52.04798405 287.45739273 46.3563385 287.4581604 C36.79894521 287.4562871 27.24167889 287.43891847 17.68432617 287.41162109 C6.62856029 287.38016104 -4.42706656 287.3696252 -15.48287398 287.3710922 C-26.11195372 287.37231219 -36.74098812 287.36210711 -47.37005424 287.34550858 C-51.8966857 287.33844077 -56.42330111 287.33478178 -60.94993782 287.33372116 C-66.27772435 287.33171451 -71.6053938 287.31952304 -76.93314171 287.29938889 C-78.89071562 287.29353932 -80.84830301 287.29108807 -82.80588531 287.29224396 C-85.47338155 287.29322313 -88.14054826 287.2819363 -90.80799866 287.26742554 C-91.58669015 287.27052274 -92.36538163 287.27361995 -93.16766983 287.276811 C-96.92635184 287.24293321 -99.81119331 287.1071968 -103 285 C-103.11671644 260.42660284 -103.20493091 235.85324711 -103.25906086 211.27962875 C-103.28486055 199.87008152 -103.32004489 188.46070634 -103.37719727 177.05126953 C-103.42697808 167.10870605 -103.45927817 157.16626715 -103.47044247 147.22358251 C-103.47697023 141.95721471 -103.49234906 136.69120338 -103.52865028 131.42494965 C-103.5625256 126.47060117 -103.57307008 121.51675683 -103.56553841 116.56230354 C-103.56691675 114.7417661 -103.57689959 112.92121224 -103.59602737 111.10077477 C-103.62083404 108.61862236 -103.61495179 106.13838382 -103.60127258 103.65618896 C-103.61583679 102.9324511 -103.630401 102.20871324 -103.64540654 101.46304393 C-103.5901641 97.76554704 -103.26199205 96.27598625 -100.67795563 93.55392456 C-97.27198873 91.57756037 -94.38115158 91.42588071 -90.54760742 91.45410156 C-89.8153595 91.44376389 -89.08311157 91.43342621 -88.32867432 91.42277527 C-85.92071331 91.39339816 -83.5135947 91.39184925 -81.10546875 91.390625 C-79.43108014 91.37563982 -77.75670629 91.35891196 -76.08235168 91.34051514 C-71.68473626 91.29686693 -67.28732021 91.27684824 -62.88952637 91.26177979 C-58.39823632 91.24219951 -53.9071613 91.20023055 -49.41601562 91.16015625 C-40.61073339 91.08488156 -31.80553567 91.03457365 -23 91 C-23.66 90.34 -24.32 89.68 -25 89 C-25.26069641 86.88148499 -25.26069641 86.88148499 -25.2746582 84.23071289 C-25.28419022 83.23950943 -25.29372223 82.24830597 -25.30354309 81.22706604 C-25.30263168 80.15311081 -25.30172028 79.07915558 -25.30078125 77.97265625 C-25.30506638 76.87279892 -25.3093515 75.77294159 -25.31376648 74.63975525 C-25.31951746 72.31038095 -25.32000442 69.9809887 -25.31567383 67.65161133 C-25.31251599 64.08058115 -25.33595698 60.51038064 -25.36132812 56.93945312 C-25.36360118 54.67968855 -25.36430459 52.41992174 -25.36328125 50.16015625 C-25.372491 49.08822525 -25.38170074 48.01629425 -25.39118958 46.91188049 C-25.38496078 45.91752487 -25.37873199 44.92316925 -25.37231445 43.89868164 C-25.37294388 43.02313126 -25.3735733 42.14758087 -25.3742218 41.24549866 C-24.91992114 38.51949091 -24.05711617 37.76782507 -22 36 C-21.11265114 34.40385419 -20.28242541 32.77511512 -19.5 31.125 C-15.8742284 23.67746914 -15.8742284 23.67746914 -14 21 C-13.34 21 -12.68 21 -12 21 C-11.71125 20.0925 -11.4225 19.185 -11.125 18.25 C-8.74418605 11.37209302 -8.74418605 11.37209302 -6 10 C-4.94824948 8.18533883 -4.94824948 8.18533883 -4 6.0625 C-2.81586997 3.51384512 -2.01242841 2.01242841 0 0 Z M-68 242 C-68.42091859 246.11686674 -68.37159641 250.23954666 -68.37060547 254.3762207 C-68.37497717 256.42678979 -68.41128424 258.47520289 -68.44921875 260.52539062 C-68.45308594 261.81509766 -68.45695312 263.10480469 -68.4609375 264.43359375 C-68.46915527 265.62009521 -68.47737305 266.80659668 -68.48583984 268.02905273 C-68.29457789 271.03947391 -68.29457789 271.03947391 -66.30367947 272.6614542 C-63.53070637 274.27268161 -61.85015923 274.37943106 -58.6552887 274.38768005 C-57.57158997 274.39758469 -56.48789124 274.40748932 -55.37135315 274.41769409 C-54.18734421 274.41319244 -53.00333527 274.4086908 -51.78344727 274.40405273 C-50.53268402 274.41091599 -49.28192078 274.41777924 -47.99325562 274.42485046 C-44.5653967 274.44001862 -41.13808144 274.44161172 -37.71022916 274.43590808 C-34.84738285 274.43281754 -31.98458578 274.43890719 -29.12174648 274.44494683 C-22.36717409 274.45899395 -15.61272817 274.4574294 -8.8581543 274.44604492 C-1.89275251 274.43456444 5.0722642 274.44863743 12.03761524 274.4754414 C18.02076695 274.49760253 24.00379782 274.50423485 29.98698765 274.49836498 C33.55919779 274.49499502 37.13116113 274.49741268 40.70333672 274.51461601 C44.68706212 274.53296397 48.67031447 274.51889366 52.65405273 274.50170898 C53.83603745 274.51137695 55.01802216 274.52104492 56.23582458 274.53100586 C62.52298783 274.50966163 62.52298783 274.50966163 68.23217773 272.14222717 C70.55112203 269.33215651 70.63142329 267.68256637 70.62890625 264.0625 C70.63083984 262.92039062 70.63277344 261.77828125 70.63476562 260.6015625 C70.61091797 259.41304687 70.58707031 258.22453125 70.5625 257 C70.57893555 255.21722656 70.57893555 255.21722656 70.59570312 253.3984375 C70.8431427 247.21410424 70.8431427 247.21410424 68.30908394 241.85732079 C65.47448889 239.57730307 64.12241302 239.50146669 60.52120972 239.50552368 C59.40793304 239.4971347 58.29465637 239.48874573 57.14764404 239.48010254 C55.3224826 239.49696106 55.3224826 239.49696106 53.46044922 239.51416016 C52.17560638 239.51036346 50.89076355 239.50656677 49.56698608 239.50265503 C46.04635011 239.49296706 42.52622177 239.50825609 39.00564718 239.52856112 C35.32303542 239.54613187 31.64043933 239.54260708 27.95779419 239.5418396 C21.77565008 239.5437121 15.59370243 239.56107145 9.41162109 239.58837891 C2.25880237 239.61985703 -4.8938014 239.63037413 -12.04668438 239.6289078 C-18.92381156 239.62768829 -25.80086858 239.63788772 -32.6779747 239.65449142 C-35.60696841 239.66156183 -38.53593729 239.66521858 -41.46493912 239.66627884 C-45.54980934 239.66865586 -49.63442357 239.68805863 -53.71923828 239.70947266 C-55.55047241 239.7081131 -55.55047241 239.7081131 -57.41870117 239.70672607 C-58.5263382 239.71525604 -59.63397522 239.72378601 -60.775177 239.73257446 C-61.74155153 239.73592615 -62.70792606 239.73927784 -63.70358467 239.74273109 C-66.19614561 239.78015523 -66.19614561 239.78015523 -68 242 Z " fill="#FBFBFB" transform="translate(171,352)"/>
<path d="M0 0 C26.25111977 -0.11673605 52.50220071 -0.20494059 78.75352764 -0.25906086 C90.94213722 -0.28485635 103.13058565 -0.32003279 115.3190918 -0.37719727 C125.94102913 -0.42699079 136.56284978 -0.45928122 147.18490058 -0.47044247 C152.81067174 -0.47696804 158.43610902 -0.49233328 164.0617733 -0.52865028 C169.35509678 -0.56254552 174.64794832 -0.57306594 179.94137001 -0.56553841 C181.88565255 -0.56691584 183.8299506 -0.5768867 185.7741394 -0.59602737 C188.42668403 -0.62086455 191.07744124 -0.6149398 193.73002625 -0.60127258 C194.50143359 -0.61583679 195.27284094 -0.630401 196.06762427 -0.64540654 C200.12616915 -0.58878696 201.7966403 -0.17036825 204.95437336 2.47507954 C205.96695855 3.72491517 205.96695855 3.72491517 207 5 C207.33 5.33 207.66 5.66 208 6 C208.10650971 8.38148171 208.14778601 10.73430865 208.14717102 13.11665344 C208.15084771 13.87014279 208.1545244 14.62363214 208.1583125 15.3999545 C208.16939296 17.9441333 208.17320052 20.48827133 208.17700195 23.0324707 C208.1832633 24.84876639 208.1899098 26.66506079 208.19691467 28.48135376 C208.2143548 33.42974794 208.22488455 38.37813244 208.2331202 43.32654977 C208.2382638 46.41529971 208.2443398 49.50404662 208.25063133 52.59279442 C208.26969149 62.24849492 208.28392107 71.90418773 208.2922433 81.55990344 C208.30202087 92.72119294 208.32835051 103.88228438 208.36874419 115.04350406 C208.3988628 123.66007768 208.41370811 132.27659439 208.41702431 140.89321965 C208.41937963 146.04436875 208.42840232 151.19530648 208.45348549 156.34639931 C208.47669697 161.19156824 208.48102746 166.03638558 208.47072411 170.88159561 C208.47022695 172.66180398 208.47660017 174.44202925 208.49028015 176.22218513 C208.50789123 178.64934769 208.50094719 181.07523372 208.48774719 183.50239563 C208.49871644 184.20988758 208.50968568 184.91737953 208.52098733 185.64631063 C208.47976122 188.77770746 208.14815163 190.7622061 206.48151588 193.43727493 C202.99234236 195.63456852 199.80384868 195.55049347 195.80799866 195.50120544 C194.55859683 195.50950704 194.55859683 195.50950704 193.28395456 195.51797634 C190.48856149 195.53160655 187.69405762 195.51660091 184.89868164 195.50170898 C182.8963737 195.50549133 180.89406837 195.51099067 178.89176941 195.51808167 C173.4495845 195.53206543 168.0077147 195.52084552 162.56554723 195.50437045 C156.87437891 195.49053824 151.18322922 195.49697802 145.49205017 195.50050354 C135.93288077 195.50320733 126.37383682 195.48971627 116.81469727 195.46655273 C105.75950974 195.43994959 94.70453208 195.43819289 83.64932352 195.4499411 C73.02077551 195.46071731 62.3923035 195.45453253 51.76376152 195.44038582 C47.23794193 195.4346239 42.71217791 195.43471035 38.1863575 195.43945122 C32.85690019 195.44422057 27.5276729 195.43412088 22.19825935 195.41249657 C20.24110693 195.4069277 18.28393241 195.40646431 16.32677841 195.41144943 C13.65725791 195.41739671 10.98844198 195.4049078 8.31898499 195.38768005 C7.54252422 195.3936901 6.76606345 195.39970014 5.96607357 195.40589231 C1.47923354 195.35315787 -1.43801836 194.79154773 -5 192 C-6.47855194 189.04289612 -6.14441328 186.04322661 -6.14044189 182.80105591 C-6.14341302 182.05079569 -6.14638414 181.30053547 -6.1494453 180.52754009 C-6.15815344 178.00028251 -6.15964232 175.47307219 -6.16113281 172.94580078 C-6.16575947 171.13920998 -6.17078392 169.33262016 -6.17617798 167.52603149 C-6.18931809 162.60868318 -6.19574999 157.69134852 -6.20018864 152.77398539 C-6.20311656 149.70415849 -6.20722082 146.63433535 -6.21169281 143.56451035 C-6.22537153 133.96647601 -6.23503655 124.36845025 -6.2388947 114.77040684 C-6.24337755 103.67821377 -6.2609344 92.58614379 -6.2898953 81.49398816 C-6.31148598 72.92834854 -6.32159757 64.36274361 -6.32293582 55.79707706 C-6.32398566 50.67728314 -6.32993145 45.55760487 -6.34775543 40.43783951 C-6.36419115 35.62306781 -6.36641359 30.80849926 -6.35761642 25.99370956 C-6.35684365 24.22479459 -6.36122028 22.4558689 -6.37107468 20.6869812 C-6.38372357 18.27538027 -6.37795634 15.86450657 -6.36749268 13.45291138 C-6.37554908 12.7499925 -6.38360548 12.04707361 -6.39190602 11.32285416 C-6.36101132 8.2864027 -6.12174205 6.22478437 -4.66453171 3.53419304 C-3 2 -3 2 0 2 C0 1.34 0 0.68 0 0 Z M34 31 C31.69759705 34.45360443 31.74308223 35.80499384 31.734375 39.875 C31.73179687 41.02484375 31.72921875 42.1746875 31.7265625 43.359375 C31.73429687 44.56078125 31.74203125 45.7621875 31.75 47 C31.74226563 48.20140625 31.73453125 49.4028125 31.7265625 50.640625 C31.72914063 51.79046875 31.73171875 52.9403125 31.734375 54.125 C31.73663086 55.17945313 31.73888672 56.23390625 31.74121094 57.3203125 C31.80887542 60.22480768 31.80887542 60.22480768 34 63 C37.51093212 64.79399369 40.40013532 65.25072734 44.31311035 65.25396729 C45.36452713 65.25960693 46.41594391 65.26524658 47.4992218 65.27105713 C48.64223251 65.26700867 49.78524323 65.26296021 50.96289062 65.25878906 C52.78073311 65.26404602 52.78073311 65.26404602 54.63529968 65.26940918 C57.95143731 65.27669552 61.26732487 65.27499865 64.58344841 65.26865101 C68.05779221 65.26357894 71.5321255 65.26828582 75.00646973 65.27142334 C80.84043287 65.27505947 86.67434534 65.27027317 92.50830078 65.26074219 C99.24810869 65.24985829 105.98779559 65.25338412 112.72760057 65.264395 C118.51967417 65.27347795 124.31171139 65.27474822 130.10378981 65.26951766 C133.56077526 65.2664035 137.01770389 65.26597337 140.47468567 65.27259064 C144.32887457 65.27945321 148.18292847 65.26993484 152.03710938 65.25878906 C153.18012009 65.26283752 154.3231308 65.26688599 155.5007782 65.27105713 C156.55219498 65.26541748 157.60361176 65.25977783 158.68688965 65.25396729 C159.59757957 65.25321323 160.5082695 65.25245918 161.44655609 65.25168228 C164.29827444 64.97060034 166.42891561 64.25132248 169 63 C172.41012016 58.34655995 171.32795368 51.92973624 171.3125 46.4375 C171.32861328 45.28830078 171.34472656 44.13910156 171.36132812 42.95507812 C171.36229492 41.30475586 171.36229492 41.30475586 171.36328125 39.62109375 C171.36626221 38.6148999 171.36924316 37.60870605 171.37231445 36.57202148 C170.92909311 33.51016123 170.4418549 32.83242613 168 31 C165.46730046 30.54754913 165.46730046 30.54754913 162.5655365 30.61904907 C161.43680618 30.6105896 160.30807587 30.60213013 159.1451416 30.59341431 C157.90607056 30.599487 156.66699951 30.60555969 155.39038086 30.61181641 C153.43407494 30.60393097 153.43407494 30.60393097 151.43824768 30.59588623 C147.85980791 30.5821973 144.2816273 30.58751727 140.70318294 30.59702349 C136.96182851 30.60461039 133.22049651 30.59757733 129.47914124 30.59286499 C123.19690967 30.58740527 116.91478387 30.59460538 110.63256836 30.60888672 C103.36328696 30.62522082 96.09425788 30.61992021 88.82498258 30.6034075 C82.58882703 30.58980721 76.35274756 30.58786559 70.11658198 30.59572351 C66.38968521 30.60040717 62.66290718 30.60100585 58.93601799 30.59111404 C54.78393401 30.58086361 50.63228731 30.59505784 46.48022461 30.61181641 C45.23912933 30.60574371 43.99803406 30.59967102 42.71932983 30.59341431 C41.59341934 30.60187378 40.46750885 30.61033325 39.30747986 30.61904907 C38.32505782 30.62018015 37.34263578 30.62131123 36.33044338 30.62247658 C35.56139707 30.74705931 34.79235075 30.87164204 34 31 Z M54.53419495 83.90834045 C51.32165096 88.28819342 51.81639996 92.10225425 51.8125 97.375 C51.80025391 98.23867188 51.78800781 99.10234375 51.77539062 99.9921875 C51.77345703 100.8275 51.77152344 101.6628125 51.76953125 102.5234375 C51.76542236 103.28575684 51.76131348 104.04807617 51.75708008 104.83349609 C52.0373696 107.33328423 52.6525153 108.88048088 54 111 C57.81482933 113.54321955 60.91633785 113.30274096 65.33935547 113.30639648 C66.19007629 113.31472 67.04079712 113.32304352 67.91729736 113.33161926 C70.73397375 113.35574545 73.55041869 113.3644945 76.3671875 113.37109375 C78.32390412 113.380058 80.28062002 113.38917981 82.23733521 113.39845276 C86.3413459 113.41495237 90.44527491 113.42264466 94.54931641 113.42553711 C99.80769043 113.43092229 105.06529674 113.46860382 110.3234539 113.51428127 C114.36580202 113.5440264 118.4079647 113.55126011 122.45041275 113.55226326 C124.38891237 113.55647053 126.3274123 113.56892509 128.26580429 113.58978081 C130.97839525 113.61664298 133.68919934 113.61188563 136.40185547 113.59936523 C137.20203094 113.61419952 138.00220642 113.62903381 138.82662964 113.64431763 C142.90548598 113.59071685 144.76487104 113.18723236 147.99694824 110.61354065 C150.15940061 107.79201738 150.64007425 106.58918027 150.6640625 103.09375 C150.67050781 102.18496094 150.67695313 101.27617188 150.68359375 100.33984375 C150.66425781 99.40269531 150.64492188 98.46554687 150.625 97.5 C150.65400391 96.09427734 150.65400391 96.09427734 150.68359375 94.66015625 C150.67714844 93.75136719 150.67070312 92.84257813 150.6640625 91.90625 C150.65842285 91.08447266 150.6527832 90.26269531 150.64697266 89.41601562 C149.66846491 85.7619354 147.94172092 84.34520524 145 82 C141.94983063 81.51060108 139.46228319 81.32432174 136.41772461 81.36889648 C135.13879585 81.35816353 135.13879585 81.35816353 133.83403015 81.34721375 C131.02291878 81.33033987 128.21340498 81.3497195 125.40234375 81.37109375 C123.44608936 81.37026501 121.48983503 81.36780542 119.53358459 81.36378479 C115.43713377 81.36092779 111.34123001 81.37561991 107.24487305 81.40307617 C101.99320222 81.43718124 96.74250814 81.43113228 91.49079037 81.4124136 C87.45272168 81.40184795 83.41488049 81.4107771 79.37683296 81.42579842 C77.44034055 81.43098237 75.50382441 81.43049585 73.56733513 81.42425346 C70.8619967 81.41880563 68.15805961 81.43916107 65.45288086 81.46655273 C64.6522522 81.46002686 63.85162354 81.45350098 63.0267334 81.44677734 C59.43912184 81.50857411 57.41393952 81.67964316 54.53419495 83.90834045 Z M33.26307678 143.36549377 C31.81130573 146.39357561 31.48394389 148.46316967 31.46875 151.81640625 C31.46359375 152.91017578 31.4584375 154.00394531 31.453125 155.13085938 C31.46859375 156.26330078 31.4840625 157.39574219 31.5 158.5625 C31.48453125 159.69880859 31.4690625 160.83511719 31.453125 162.00585938 C31.45828125 163.09833984 31.4634375 164.19082031 31.46875 165.31640625 C31.47326172 166.31099854 31.47777344 167.30559082 31.48242188 168.33032227 C32.15080845 171.77787285 33.29067894 172.80926283 36 175 C38.57137944 175.59984421 38.57137944 175.59984421 41.42736816 175.5146637 C43.08032646 175.53375038 43.08032646 175.53375038 44.76667786 175.55322266 C45.97095932 175.54669678 47.17524078 175.5401709 48.41601562 175.53344727 C50.32383064 175.54637062 50.32383064 175.54637062 52.27018738 175.55955505 C55.75578143 175.58205493 59.24092157 175.57910844 62.72656059 175.57023358 C65.63673501 175.56512359 68.54682413 175.57241621 71.45698977 175.57970566 C78.32182553 175.59670613 85.18643902 175.59313701 92.05126953 175.57641602 C99.13378937 175.55948793 106.2156932 175.57533769 113.29814577 175.6076389 C119.37981366 175.6343251 125.46128967 175.64161369 131.54301023 175.63312382 C135.17503756 175.62819243 138.80669408 175.63042118 142.43867493 175.65091133 C146.48750347 175.67265997 150.53516166 175.65388132 154.58398438 175.63110352 C155.78826584 175.64279572 156.9925473 175.65448792 158.23332214 175.66653442 C164.54224504 175.75695986 164.54224504 175.75695986 169.74266052 172.62876892 C172.01910948 167.86930787 171.61509798 163.18554155 171.5625 158 C171.58634766 156.91976562 171.61019531 155.83953125 171.63476562 154.7265625 C171.63283203 153.68242188 171.63089844 152.63828125 171.62890625 151.5625 C171.62963135 150.61503906 171.63035645 149.66757812 171.63110352 148.69140625 C170.95308884 145.79994252 170.01494332 144.10768816 167.85318089 142.06155777 C163.60662253 139.62900138 158.31173205 140.31267751 153.56225586 140.35302734 C151.66885216 140.33988495 151.66885216 140.33988495 149.73719788 140.32647705 C146.28254497 140.30371988 142.82864022 140.31250372 139.37397456 140.32837248 C135.75634062 140.34104771 132.13876993 140.32928714 128.52113342 140.32144165 C122.44748451 140.3123509 116.37413982 140.32431883 110.30053711 140.34814453 C103.27989247 140.37536737 96.25997357 140.36653163 89.23934644 140.3390125 C83.20859661 140.31632037 77.1780652 140.31312135 71.14728647 140.32620585 C67.54659124 140.33399838 63.94623716 140.33504766 60.34556389 140.31852341 C56.33272195 140.30139304 52.32113097 140.32513531 48.30834961 140.35302734 C47.11498993 140.34290619 45.92163025 140.33278503 44.69210815 140.32235718 C38.42642365 140.2471266 38.42642365 140.2471266 33.26307678 143.36549377 Z " fill="#F7F7F7" transform="translate(334,444)"/>
<path d="M0 0 C1.25954474 -0.00609109 1.25954474 -0.00609109 2.54453483 -0.01230523 C5.38310185 -0.02232079 8.2211825 -0.01078432 11.05973911 0.00050831 C13.1053806 -0.00222988 15.15102068 -0.00627988 17.19665724 -0.01153535 C22.83739207 -0.02216641 28.47796946 -0.01396464 34.11869752 -0.00278485 C40.19444984 0.00602767 46.2701809 -0.00237781 52.34593296 -0.00864697 C63.56714218 -0.01760432 74.78829929 -0.01295395 86.00950122 -0.00148315 C96.37532741 0.00904144 106.74113548 0.01359383 117.10696697 0.01222134 C117.79380826 0.01213731 118.48064954 0.01205328 119.1883042 0.0119667 C121.97623117 0.01161447 124.76415813 0.01123046 127.55208508 0.01080112 C153.72110561 0.0068334 179.89009409 0.01956629 206.05910545 0.04032768 C229.32100791 0.05869595 252.58287962 0.06451072 275.84478855 0.05905628 C277.33822292 0.05870985 278.83165729 0.05836375 280.32509165 0.05801799 C281.43256666 0.0577615 281.43256666 0.0577615 282.5624149 0.05749982 C286.27881543 0.05664631 289.99521597 0.05582252 293.71161652 0.05503082 C294.81134106 0.0547952 294.81134106 0.0547952 295.93328226 0.05455482 C315.35589816 0.05056674 334.7785111 0.05603774 354.2011252 0.06454211 C356.29050895 0.06544918 358.3798927 0.06635483 360.46927645 0.06725735 C361.85538869 0.06785846 363.24150093 0.06846708 364.62761316 0.06908325 C374.30052169 0.07330863 383.97342439 0.07388121 393.64633354 0.07197776 C406.11108848 0.06953722 418.57581604 0.07380214 431.04056447 0.08918776 C437.05411031 0.09644932 443.06761294 0.10049383 449.08116245 0.0959444 C454.58012643 0.09188537 460.079001 0.0969837 465.57795138 0.10957048 C467.57320696 0.11251247 469.56847089 0.11204513 471.56372439 0.1079274 C474.26452012 0.10285733 476.96501242 0.10995912 479.66578674 0.12025452 C480.84237136 0.11365979 480.84237136 0.11365979 482.04272535 0.10693184 C486.13253612 0.13686215 488.13240753 0.4930269 491.89581394 2.37473011 C491.89581394 7.32473011 491.89581394 12.27473011 491.89581394 17.37473011 C491.23581394 17.37473011 490.57581394 17.37473011 489.89581394 17.37473011 C489.89581394 18.03473011 489.89581394 18.69473011 489.89581394 19.37473011 C442.24147211 19.39183983 394.58713004 19.40776156 346.93278599 19.41707325 C346.22805527 19.41721131 345.52332456 19.41734936 344.79723837 19.4174916 C329.48340699 19.42048416 314.16957558 19.42325439 298.85574413 19.42579544 C291.34639565 19.42704283 283.83704718 19.42833938 276.32769871 19.42966175 C275.58040812 19.42979251 274.83311753 19.42992327 274.06318178 19.43005799 C249.81926559 19.43432319 225.57535173 19.44183736 201.33143696 19.45102733 C176.42818437 19.46045014 151.52493307 19.46661328 126.62167874 19.4686451 C123.10835069 19.46893328 119.59502265 19.46925891 116.0816946 19.46960735 C115.04443288 19.46970849 115.04443288 19.46970849 113.98621637 19.46981167 C102.83213376 19.47099571 91.67805512 19.47564003 80.52397413 19.48156214 C69.32412198 19.48743531 58.12427372 19.48962038 46.92441971 19.48823149 C40.85051703 19.48758777 34.77662604 19.48860941 28.70272541 19.49393559 C23.15201496 19.49876774 17.60132417 19.49906998 12.05061286 19.49562901 C10.03311138 19.49520313 8.01560871 19.4965004 5.99810959 19.49961329 C3.27456404 19.5035742 0.55109128 19.50149543 -2.17245293 19.49777794 C-2.97199863 19.50040495 -3.77154434 19.50303197 -4.5953187 19.50573859 C-9.99004026 19.48887591 -9.99004026 19.48887591 -11.10418606 18.37473011 C-11.25767742 15.90115774 -11.33578491 13.47468492 -11.35418606 10.99973011 C-11.37481106 10.31394886 -11.39543606 9.62816761 -11.41668606 8.92160511 C-11.45527773 3.96257569 -11.45527773 3.96257569 -10.09018987 1.67695934 C-6.94795358 -0.38341533 -3.63514072 -0.0337733 0 0 Z " fill="#F7F7F7" transform="translate(67.10418605804443,653.6252698898315)"/>
<path d="M0 0 C5.95703125 -0.48828125 5.95703125 -0.48828125 8 0 C10.53333053 3.47981749 11.37459016 5.94672465 11.36914349 10.22236347 C11.37511663 11.25992041 11.38108978 12.29747735 11.38724393 13.3664754 C11.37413614 15.06637371 11.37413614 15.06637371 11.36076355 16.8006134 C11.36332682 18.00953347 11.3658901 19.21845354 11.36853105 20.46400756 C11.37261821 23.81637137 11.36324268 27.1682098 11.34819686 30.52051008 C11.33524191 34.13667942 11.33962558 37.75283253 11.34190369 41.36901855 C11.34347677 47.63320065 11.33406398 53.89728901 11.31719017 60.16144753 C11.2928094 69.2183544 11.28499585 78.27521595 11.2812262 87.33215209 C11.27466026 102.02639206 11.25469525 116.72058208 11.22631836 131.41479492 C11.19878146 145.68888092 11.17754607 159.96295335 11.16479492 174.23706055 C11.16400675 175.11691062 11.16321858 175.9967607 11.16240653 176.9032729 C11.15849142 181.31722067 11.15470029 185.73116853 11.15097082 190.14511645 C11.11987049 226.76344624 11.06703083 263.38171923 11 300 C11.95261719 299.96519531 12.90523437 299.93039062 13.88671875 299.89453125 C15.14097656 299.86746094 16.39523438 299.84039062 17.6875 299.8125 C18.92886719 299.77769531 20.17023438 299.74289062 21.44921875 299.70703125 C25.22120838 300.01825152 27.06984982 300.64266114 30 303 C30.66654631 306.48085297 30.53622521 308.19163867 28.56835938 311.15820312 C24.66772911 313.95538513 21.03254246 313.57309006 16.34375 313.53125 C15.40446655 313.5350769 14.46518311 313.53890381 13.49743652 313.54284668 C11.51374234 313.54556576 9.5300123 313.53820484 7.54638672 313.52148438 C4.51057984 313.50007461 1.47713954 313.52128607 -1.55859375 313.546875 C-3.48698439 313.54423172 -5.41537356 313.53910675 -7.34375 313.53125 C-8.25112915 313.53934692 -9.1585083 313.54744385 -10.09338379 313.55578613 C-16.35383729 313.46266624 -16.35383729 313.46266624 -19.57226562 311.15820312 C-21.51988221 308.21413154 -21.58829813 306.45625149 -21 303 C-18.44324204 300.17965875 -16.95884604 299.99690106 -13.109375 299.70703125 C-11.65595991 299.72685055 -10.20268833 299.76245155 -8.75 299.8125 C-8.00492188 299.82603516 -7.25984375 299.83957031 -6.4921875 299.85351562 C-4.66114584 299.88872796 -2.83047831 299.94253149 -1 300 C-1.00037972 299.37519186 -1.00075944 298.75038373 -1.00115067 298.10664201 C-1.02351588 261.09719923 -1.04068005 224.08775746 -1.05106533 187.07830931 C-1.05231608 182.63716713 -1.05361039 178.19602497 -1.05493164 173.75488281 C-1.05519395 172.87071008 -1.05545626 171.98653735 -1.05572652 171.07557151 C-1.06008097 156.74844902 -1.06796729 142.42133053 -1.0771528 128.09421042 C-1.08649558 113.3995101 -1.09205694 98.70481188 -1.09408849 84.01010871 C-1.09546242 74.93853933 -1.09980599 65.86698127 -1.10791647 56.79541537 C-1.11319162 50.57952475 -1.11480253 44.36364 -1.11350138 38.14774731 C-1.11285921 34.55847172 -1.11386192 30.96921594 -1.11920547 27.37994385 C-1.12495049 23.49272941 -1.12299456 19.60554099 -1.12025452 15.71832275 C-1.12316736 14.57825342 -1.1260802 13.43818409 -1.12908131 12.26356721 C-1.12709026 11.22451792 -1.12509921 10.18546864 -1.12304783 9.11493301 C-1.12342755 8.21727415 -1.12380727 7.31961529 -1.1241985 6.39475465 C-1.00651016 4.12552679 -0.63719603 2.17483331 0 0 Z " fill="#FBFBFB" transform="translate(167,38)"/>
<path d="M0 0 C6.68052098 4.0335221 12.41704929 8.58657047 15.3125 16 C16.12528691 23.13202209 16.8169049 31.95039461 12.9140625 38.25390625 C6.78499336 44.9360865 0.54030196 48.65147987 -8.4375 49.25 C-16.45285475 49.08426898 -22.25231963 46.23065777 -28.02734375 40.765625 C-33.30196736 35.15590765 -33.90451514 29.66910253 -33.76953125 22.26953125 C-33.52815962 15.5915828 -32.54212981 11.71107893 -27.6875 7 C-19.15377772 -0.80744805 -11.30261501 -3.06511594 0 0 Z " fill="#F6F6F6" transform="translate(245.6875,509)"/>
<path d="M0 0 C-0.33 0.99 -0.66 1.98 -1 3 C-1.09545262 5.48124573 -1.13473238 7.93410235 -1.12698364 10.41531372 C-1.12854363 11.17671217 -1.13010362 11.93811062 -1.13171089 12.72258174 C-1.13570892 15.28138261 -1.13253588 17.84012445 -1.12939453 20.39892578 C-1.13074908 22.23023514 -1.13252931 24.06154422 -1.13470459 25.89285278 C-1.13927191 30.8719291 -1.1374924 35.85098475 -1.1343255 40.83006144 C-1.13179906 46.0319617 -1.13414017 51.23386016 -1.13571167 56.4357605 C-1.13753221 65.17023029 -1.13512974 73.90469164 -1.13037109 82.63916016 C-1.12492529 92.75197657 -1.1266939 102.86477284 -1.1321975 112.97758877 C-1.13672787 121.64765856 -1.13737966 130.31772226 -1.13475883 138.98779285 C-1.13319607 144.17170662 -1.13300233 149.35561091 -1.13629532 154.53952408 C-1.13917304 159.41006036 -1.13720019 164.28057053 -1.13140106 169.15110397 C-1.13007307 170.94384976 -1.13046823 172.73659772 -1.13266373 174.52934265 C-1.13537364 176.96580982 -1.13199612 179.4021919 -1.12698364 181.83865356 C-1.12921436 182.55741075 -1.13144509 183.27616793 -1.13374341 184.01670563 C-1.40190408 187.28966313 -1.40190408 187.28966313 0 190 C2.64055893 190.10003293 5.25503001 190.13440325 7.89611816 190.12698364 C8.73339526 190.12854363 9.57067235 190.13010362 10.43332148 190.13171089 C13.26090369 190.13572448 16.08843294 190.13252986 18.91601562 190.12939453 C20.93421968 190.13074841 22.95242349 190.13252827 24.97062683 190.13470459 C30.46839944 190.13928048 35.96615337 190.13748872 41.46392632 190.1343255 C47.20369392 190.1318027 52.94345987 190.13413922 58.68322754 190.13571167 C68.32414031 190.1375336 77.96504542 190.13512644 87.60595703 190.13037109 C98.76959995 190.12492843 109.93322461 190.12669107 121.09686708 190.1321975 C130.662855 190.13672796 140.22883739 190.13737951 149.79482603 190.13475883 C155.51644407 190.13319569 161.23805352 190.13300331 166.95967102 190.13629532 C172.33741935 190.13917306 177.71514402 190.13720013 183.09288979 190.13140106 C185.07269056 190.13007294 187.05249331 190.13046845 189.03229332 190.13266373 C191.72285018 190.13537321 194.41332996 190.1319966 197.10388184 190.12698364 C197.89793128 190.12921436 198.69198071 190.13144509 199.51009226 190.13374341 C203.04908892 190.4481283 203.04908892 190.4481283 206 189 C206.11004251 186.59712319 206.15495637 184.22236544 206.15821838 181.81846619 C206.16315636 181.05807102 206.16809434 180.29767586 206.17318195 179.51423842 C206.18863294 176.94691322 206.19693801 174.37961317 206.20532227 171.81225586 C206.21489483 169.97961706 206.22490453 168.14698051 206.23532104 166.31434631 C206.2624436 161.32284344 206.28341323 156.33133103 206.30332303 151.33979487 C206.32513741 146.1293899 206.35254827 140.91901454 206.37937927 135.70863342 C206.42936786 125.83471121 206.47428373 115.96077262 206.51740164 106.08681828 C206.56672143 94.84877897 206.621659 83.61076936 206.67708123 72.37275875 C206.79099589 49.24853352 206.89781417 26.12427982 207 3 C207.99 3.495 207.99 3.495 209 4 C209.09337522 28.05188266 209.16394581 52.10373823 209.20724869 76.15576553 C209.22788796 87.32314355 209.25603466 98.49040904 209.30175781 109.65771484 C209.34158376 119.38932708 209.36742288 129.12085785 209.37635398 138.85254931 C209.38157591 144.00708012 209.39387771 149.16137783 209.42292023 154.31583405 C209.45002228 159.16507715 209.45845555 164.01399059 209.45243073 168.86330223 C209.4535333 170.64512866 209.46151816 172.42696584 209.4768219 174.20872688 C209.49666876 176.63811457 209.49195928 179.066251 209.48101807 181.4956665 C209.49266943 182.20384057 209.5043208 182.91201464 209.51632524 183.64164853 C209.47807165 186.77521705 209.14923496 188.76035957 207.48193645 191.4376955 C203.99241656 193.63424353 200.80382684 193.5504932 196.80799866 193.50120544 C195.55859683 193.50950704 195.55859683 193.50950704 194.28395456 193.51797634 C191.48856149 193.53160655 188.69405762 193.51660091 185.89868164 193.50170898 C183.8963737 193.50549133 181.89406837 193.51099067 179.89176941 193.51808167 C174.4495845 193.53206543 169.0077147 193.52084552 163.56554723 193.50437045 C157.87437891 193.49053824 152.18322922 193.49697802 146.49205017 193.50050354 C136.93288077 193.50320733 127.37383682 193.48971627 117.81469727 193.46655273 C106.75950974 193.43994959 95.70453208 193.43819289 84.64932352 193.4499411 C74.02077551 193.46071731 63.3923035 193.45453253 52.76376152 193.44038582 C48.23794193 193.4346239 43.71217791 193.43471035 39.1863575 193.43945122 C33.85690019 193.44422057 28.5276729 193.43412088 23.19825935 193.41249657 C21.24110693 193.4069277 19.28393241 193.40646431 17.32677841 193.41144943 C14.65725791 193.41739671 11.98844198 193.4049078 9.31898499 193.38768005 C8.54252422 193.3936901 7.76606345 193.39970014 6.96607357 193.40589231 C2.47923354 193.35315787 -0.43801836 192.79154773 -4 190 C-5.47855194 187.04289612 -5.14441328 184.04322661 -5.14044189 180.80105591 C-5.14341302 180.05079569 -5.14638414 179.30053547 -5.1494453 178.52754009 C-5.15815344 176.00028251 -5.15964232 173.47307219 -5.16113281 170.94580078 C-5.16575947 169.13920998 -5.17078392 167.33262016 -5.17617798 165.52603149 C-5.18931809 160.60868318 -5.19574999 155.69134852 -5.20018864 150.77398539 C-5.20311656 147.70415849 -5.20722082 144.63433535 -5.21169281 141.56451035 C-5.22537153 131.96647601 -5.23503655 122.36845025 -5.2388947 112.77040684 C-5.24337755 101.67821377 -5.2609344 90.58614379 -5.2898953 79.49398816 C-5.31148598 70.92834854 -5.32159757 62.36274361 -5.32293582 53.79707706 C-5.32398566 48.67728314 -5.32993145 43.55760487 -5.34775543 38.43783951 C-5.36419115 33.62306781 -5.36641359 28.80849926 -5.35761642 23.99370956 C-5.35684365 22.22479459 -5.36122028 20.4558689 -5.37107468 18.6869812 C-5.38372357 16.27538027 -5.37795634 13.86450657 -5.36749268 11.45291138 C-5.37554908 10.7499925 -5.38360548 10.04707361 -5.39190602 9.32285416 C-5.36061605 6.24755367 -5.13209899 4.23300286 -3.60203171 1.53419304 C-2 0 -2 0 0 0 Z " fill="#B6B6B6" transform="translate(333,446)"/>
<path d="M0 0 C10.21384495 -0.11588308 20.42753335 -0.20470988 30.64190197 -0.25906086 C35.38495807 -0.28514766 40.1275642 -0.32052875 44.87036133 -0.37719727 C49.4480309 -0.43155009 54.02526787 -0.46142744 58.60323524 -0.47438622 C60.34918338 -0.48362027 62.095108 -0.50165261 63.84087181 -0.52865028 C66.28790699 -0.56498563 68.73315809 -0.56994371 71.18041992 -0.56762695 C71.90115189 -0.58560333 72.62188385 -0.60357971 73.36445618 -0.62210083 C77.14288983 -0.58343091 78.8939126 -0.07915089 81.95225525 2.20265198 C84.2073662 5.28327527 84.61688616 6.56929142 84.58349609 10.32519531 C84.58634613 11.36266907 84.58919617 12.40014282 84.59213257 13.46905518 C84.55812851 15.13179474 84.55812851 15.13179474 84.5234375 16.828125 C84.51873444 17.97287292 84.51403137 19.11762085 84.50918579 20.29705811 C84.48785092 23.9486529 84.43120937 27.59879313 84.375 31.25 C84.35849409 33.72394473 84.34414571 36.19790487 84.33203125 38.671875 C84.29804867 43.17889639 84.26350411 47.68577487 84.19287109 52.19238281 C84.18001068 53.09885559 84.16715027 54.00532837 84.15390015 54.93927002 C84 57 84 57 83 58 C79.98649762 58.09529612 76.99595894 58.12551904 73.98217773 58.11352539 C73.03593536 58.11367142 72.08969299 58.11381744 71.11477661 58.1139679 C67.97102608 58.11326836 64.82733399 58.10547409 61.68359375 58.09765625 C59.51025932 58.09579221 57.33692448 58.09436824 55.16358948 58.09336853 C49.43098805 58.08954221 43.69841177 58.07971097 37.96582031 58.06866455 C31.0942868 58.05665886 24.2227449 58.05204873 17.35120392 58.04621124 C6.90078509 58.03649927 -3.54957849 58.0173435 -14 58 C-14 79.78 -14 101.56 -14 124 C-7.00941406 123.98839844 -0.01882812 123.97679687 7.18359375 123.96484375 C11.5996103 123.95973712 16.01562323 123.95492336 20.43164062 123.95117188 C27.44833121 123.94518295 34.46500881 123.93808134 41.48168945 123.92456055 C47.13561712 123.9137333 52.78953087 123.90772351 58.44346809 123.90512276 C60.6057361 123.90326821 62.76800331 123.89964705 64.93026543 123.89426994 C67.94758657 123.88706167 70.96484943 123.88600897 73.98217773 123.88647461 C74.8856041 123.88287933 75.78903046 123.87928406 76.71983337 123.87557983 C82.88594784 123.88594784 82.88594784 123.88594784 84 125 C84.09413687 127.05556661 84.11742998 129.11440181 84.11352539 131.17211914 C84.11367142 131.81600082 84.11381744 132.45988251 84.1139679 133.12327576 C84.11326885 135.26060303 84.10547691 137.39784413 84.09765625 139.53515625 C84.09579204 141.01346285 84.09436815 142.49177007 84.09336853 143.97007751 C84.08954359 147.86798802 84.07971352 151.76586149 84.06866455 155.66375732 C84.05844992 159.63846333 84.0538708 163.61317529 84.04882812 167.58789062 C84.03809122 175.391944 84.02101509 183.19596682 84 191 C82.02 191.99 82.02 191.99 80 193 C80.33 192.01 80.66 191.02 81 190 C81.11720809 187.96095909 81.17678843 185.91842818 81.20532227 183.8762207 C81.22526749 182.61513992 81.24521271 181.35405914 81.26576233 180.05476379 C81.28274533 178.67843753 81.29962419 177.30210998 81.31640625 175.92578125 C81.33698197 174.51758725 81.3579786 173.10939935 81.37937927 171.70121765 C81.43453622 167.99739519 81.48397354 164.29351759 81.53222656 160.58959961 C81.58248821 156.80903218 81.63814992 153.02854471 81.69335938 149.24804688 C81.80086292 141.83209898 81.90232514 134.41608455 82 127 C80.20261887 127.00999275 80.20261887 127.00999275 78.368927 127.02018738 C67.09701147 127.08090433 55.82512896 127.12592727 44.55308723 127.15543652 C38.75749033 127.17111732 32.96202505 127.19239962 27.16650391 127.22631836 C21.57739843 127.25882571 15.98841983 127.2768348 10.39922714 127.28463173 C8.26288733 127.29019078 6.12655475 127.30104565 3.99026871 127.31719017 C1.00654132 127.33884979 -1.97665635 127.34197174 -4.96044922 127.34057617 C-5.85092957 127.351362 -6.74140991 127.36214783 -7.65887451 127.3732605 C-10.11495972 127.36076355 -10.11495972 127.36076355 -14 127 C-16.39386566 123.40920151 -16.25302334 121.80767758 -16.25878906 117.54077148 C-16.26404602 116.5646994 -16.26404602 116.5646994 -16.26940918 115.56890869 C-16.2782069 113.41952832 -16.27238515 111.27047743 -16.265625 109.12109375 C-16.26697205 107.62801551 -16.26891293 106.1349377 -16.27142334 104.64186096 C-16.2743718 101.51388367 -16.27008534 98.38602065 -16.26074219 95.25805664 C-16.24933786 91.2439361 -16.25591495 87.23008272 -16.26788712 83.21597195 C-16.27510484 80.13367184 -16.27281838 77.05143537 -16.26763153 73.96913338 C-16.2662953 72.48871898 -16.26794184 71.00829886 -16.27259064 69.52789116 C-16.27765562 67.46171573 -16.269947 65.3959768 -16.25878906 63.32983398 C-16.25719788 62.15307602 -16.25560669 60.97631805 -16.25396729 59.76390076 C-16 57 -16 57 -14 55 C-10.95641474 54.81158246 -8.00444765 54.74836919 -4.96044922 54.77294922 C-4.02381439 54.77265717 -3.08717957 54.77236511 -2.12216187 54.77206421 C0.98375611 54.77346115 4.08943626 54.78903951 7.1953125 54.8046875 C9.34479644 54.80841633 11.49428207 54.81126392 13.64376831 54.81326294 C19.30898712 54.82090961 24.97410383 54.84056697 30.63928223 54.8626709 C36.41705952 54.88310709 42.19485326 54.89225989 47.97265625 54.90234375 C59.31514909 54.92381188 70.65756607 54.95796027 82 55 C81.90788766 47.91560891 81.80060338 40.83156574 81.68261719 33.74755859 C81.64426353 31.33615372 81.6094221 28.92469038 81.578125 26.51318359 C81.53261297 23.05284687 81.47459596 19.59291492 81.4140625 16.1328125 C81.40251129 15.04944611 81.39096008 13.96607971 81.37905884 12.84988403 C81.35918915 11.8489975 81.33931946 10.84811096 81.31884766 9.81689453 C81.30552399 8.93309113 81.29220032 8.04928772 81.2784729 7.13870239 C81.19330996 4.7867175 81.19330996 4.7867175 79 3 C76.47253859 2.78274551 74.05124221 2.68862421 71.52099609 2.68115234 C70.75017197 2.67110672 69.97934784 2.6610611 69.18516541 2.65071106 C66.63126386 2.6197615 64.07746768 2.60281149 61.5234375 2.5859375 C59.75508714 2.56723529 57.98674578 2.5476626 56.21841431 2.5272522 C51.5594208 2.47582479 46.90039831 2.43625602 42.24127197 2.39910889 C37.48889946 2.35913557 32.73664854 2.30801288 27.984375 2.2578125 C18.65633529 2.16092769 9.32822708 2.07656326 0 2 C0 1.34 0 0.68 0 0 Z " fill="#BBBBBB" transform="translate(197,444)"/>
<path d="M0 0 C5.95703125 -0.48828125 5.95703125 -0.48828125 8 0 C10.53333053 3.47981749 11.37459016 5.94672465 11.36914349 10.22236347 C11.37511663 11.25992041 11.38108978 12.29747735 11.38724393 13.3664754 C11.37413614 15.06637371 11.37413614 15.06637371 11.36076355 16.8006134 C11.36332682 18.00953347 11.3658901 19.21845354 11.36853105 20.46400756 C11.37261821 23.81637137 11.36324268 27.1682098 11.34819686 30.52051008 C11.33524191 34.13667942 11.33962558 37.75283253 11.34190369 41.36901855 C11.34347677 47.63320065 11.33406398 53.89728901 11.31719017 60.16144753 C11.2928094 69.2183544 11.28499585 78.27521595 11.2812262 87.33215209 C11.27466026 102.02639206 11.25469525 116.72058208 11.22631836 131.41479492 C11.19878146 145.68888092 11.17754607 159.96295335 11.16479492 174.23706055 C11.16400675 175.11691062 11.16321858 175.9967607 11.16240653 176.9032729 C11.15849142 181.31722067 11.15470029 185.73116853 11.15097082 190.14511645 C11.11987049 226.76344624 11.06703083 263.38171923 11 300 C11.95261719 299.96519531 12.90523437 299.93039062 13.88671875 299.89453125 C15.14097656 299.86746094 16.39523438 299.84039062 17.6875 299.8125 C18.92886719 299.77769531 20.17023438 299.74289062 21.44921875 299.70703125 C25.22120838 300.01825152 27.06984982 300.64266114 30 303 C30.66654631 306.48085297 30.53622521 308.19163867 28.56835938 311.15820312 C24.66772911 313.95538513 21.03254246 313.57309006 16.34375 313.53125 C15.40446655 313.5350769 14.46518311 313.53890381 13.49743652 313.54284668 C11.51374234 313.54556576 9.5300123 313.53820484 7.54638672 313.52148438 C4.51057984 313.50007461 1.47713954 313.52128607 -1.55859375 313.546875 C-3.48698439 313.54423172 -5.41537356 313.53910675 -7.34375 313.53125 C-8.25112915 313.53934692 -9.1585083 313.54744385 -10.09338379 313.55578613 C-16.35383729 313.46266624 -16.35383729 313.46266624 -19.57226562 311.15820312 C-21.51988221 308.21413154 -21.58829813 306.45625149 -21 303 C-18.44324204 300.17965875 -16.95884604 299.99690106 -13.109375 299.70703125 C-11.65595991 299.72685055 -10.20268833 299.76245155 -8.75 299.8125 C-8.00492188 299.82603516 -7.25984375 299.83957031 -6.4921875 299.85351562 C-4.66114584 299.88872796 -2.83047831 299.94253149 -1 300 C-1.00037972 299.37519186 -1.00075944 298.75038373 -1.00115067 298.10664201 C-1.02351588 261.09719923 -1.04068005 224.08775746 -1.05106533 187.07830931 C-1.05231608 182.63716713 -1.05361039 178.19602497 -1.05493164 173.75488281 C-1.05519395 172.87071008 -1.05545626 171.98653735 -1.05572652 171.07557151 C-1.06008097 156.74844902 -1.06796729 142.42133053 -1.0771528 128.09421042 C-1.08649558 113.3995101 -1.09205694 98.70481188 -1.09408849 84.01010871 C-1.09546242 74.93853933 -1.09980599 65.86698127 -1.10791647 56.79541537 C-1.11319162 50.57952475 -1.11480253 44.36364 -1.11350138 38.14774731 C-1.11285921 34.55847172 -1.11386192 30.96921594 -1.11920547 27.37994385 C-1.12495049 23.49272941 -1.12299456 19.60554099 -1.12025452 15.71832275 C-1.12316736 14.57825342 -1.1260802 13.43818409 -1.12908131 12.26356721 C-1.12709026 11.22451792 -1.12509921 10.18546864 -1.12304783 9.11493301 C-1.12342755 8.21727415 -1.12380727 7.31961529 -1.1241985 6.39475465 C-1.00651016 4.12552679 -0.63719603 2.17483331 0 0 Z M2 2 C-0.18134415 5.27201622 -0.2520995 6.20255315 -0.26171303 9.99188519 C-0.27291127 11.54747254 -0.27291127 11.54747254 -0.28433573 13.1344859 C-0.282401 14.27746807 -0.28046626 15.42045024 -0.2784729 16.59806824 C-0.2842653 17.80936301 -0.2900577 19.02065778 -0.29602563 20.26865846 C-0.31012127 23.63680729 -0.3152584 27.00475774 -0.31667423 30.37292182 C-0.3203616 34.00278415 -0.33551372 37.6326004 -0.34928894 41.26243591 C-0.37158651 47.55334684 -0.38658475 53.84424142 -0.39665604 60.13518333 C-0.411228 69.23087602 -0.43676062 78.32651181 -0.46498732 87.42217115 C-0.51048232 102.17848642 -0.54708591 116.93480987 -0.578125 131.69116211 C-0.60829947 146.02743975 -0.64264465 160.36369736 -0.68261719 174.69995117 C-0.68507874 175.58331369 -0.68754028 176.46667621 -0.69007643 177.37680729 C-0.70245081 181.80828068 -0.71490739 186.23975382 -0.72740483 190.67122686 C-0.83101316 227.44745696 -0.92020302 264.22371091 -1 301 C-2.21558594 301.06058594 -3.43117187 301.12117188 -4.68359375 301.18359375 C-6.26824228 301.26798332 -7.85287702 301.3526321 -9.4375 301.4375 C-10.23994141 301.47681641 -11.04238281 301.51613281 -11.86914062 301.55664062 C-15.75239561 301.4054296 -15.75239561 301.4054296 -19 303 C-19.25005386 305.95817107 -19.25005386 305.95817107 -19 309 C-17.24118593 311.16559741 -17.24118593 311.16559741 -15.09580994 311.24723816 C-13.93451317 311.24510063 -13.93451317 311.24510063 -12.74975586 311.24291992 C-11.87222153 311.24599655 -10.99468719 311.24907318 -10.09056091 311.25224304 C-9.14157425 311.24505753 -8.19258759 311.23787201 -7.21484375 311.23046875 C-5.75770714 311.22978142 -5.75770714 311.22978142 -4.27113342 311.2290802 C-2.21581807 311.22605624 -0.16050505 311.21816566 1.89477539 311.20581055 C5.05297905 311.18755503 8.21088973 311.18530081 11.36914062 311.18554688 C13.36198172 311.18063182 15.35482082 311.17480355 17.34765625 311.16796875 C18.29866714 311.16685593 19.24967804 311.1657431 20.22950745 311.16459656 C21.5410807 311.15502678 21.5410807 311.15502678 22.87915039 311.14526367 C24.03925377 311.13954597 24.03925377 311.13954597 25.22279358 311.13371277 C27.02500021 311.19235406 27.02500021 311.19235406 28 310 C28.04092937 307.66702567 28.04241723 305.33294775 28 303 C24.828262 301.414131 21.36486178 301.62133555 17.875 301.4375 C17.12089844 301.39431641 16.36679688 301.35113281 15.58984375 301.30664062 C13.72678112 301.2005168 11.86341476 301.09974999 10 301 C9.99864347 300.37231645 9.99728694 299.7446329 9.99588931 299.09792864 C9.91531052 261.9299186 9.82438539 224.76194733 9.71994839 187.59399638 C9.70742891 183.13525561 9.69499623 178.6765146 9.68261719 174.21777344 C9.6789182 172.88624149 9.6789182 172.88624149 9.67514448 171.5278099 C9.63537661 157.13791671 9.60264714 142.74801562 9.57250018 128.35809942 C9.54143087 113.60236404 9.502841 98.84666228 9.45720994 84.09096467 C9.42927208 74.97947435 9.40726212 65.86800874 9.39273749 56.756487 C9.38222841 50.51582171 9.36444138 44.27520415 9.34083296 38.03457476 C9.32741229 34.429339 9.3172945 30.8241704 9.31578636 27.21890831 C9.31407103 23.31779915 9.29707817 19.41684484 9.2784729 15.51577759 C9.28040763 14.36599163 9.28234237 13.21620567 9.28433573 12.03157771 C9.27687024 10.99302712 9.26940475 9.95447654 9.26171303 8.88445473 C9.25943471 7.98299866 9.25715638 7.0815426 9.25480902 6.15276968 C9.20006714 3.7873407 9.20006714 3.7873407 7 2 C4.5 1.58333333 4.5 1.58333333 2 2 Z " fill="#A6A6A6" transform="translate(167,38)"/>
<path d="M0 0 C0.66 0 1.32 0 2 0 C2.00423194 0.96282615 2.00846388 1.92565229 2.01282406 2.91765499 C2.11586639 26.30963368 2.22459504 49.70158061 2.33933926 73.09350491 C2.3946953 84.40550627 2.44818114 95.71751078 2.49731445 107.02954102 C2.54012719 116.88529685 2.58639772 126.74102923 2.63687855 136.59674889 C2.66350301 141.8187026 2.68835658 147.0406516 2.70907402 152.26263237 C2.72860463 157.17172389 2.75273747 162.08077068 2.78049088 166.98982239 C2.78988033 168.79707086 2.79754873 170.60432916 2.80341911 172.41159248 C2.81164827 174.86794535 2.82591561 177.32418872 2.84178162 179.78050232 C2.84324878 180.86754405 2.84324878 180.86754405 2.84474558 181.97654623 C2.58921386 185.27104141 2.58921386 185.27104141 4 188 C6.64248935 188.11021487 9.25940453 188.154965 11.90284729 188.15821838 C13.15982128 188.16562535 13.15982128 188.16562535 14.44218868 188.17318195 C17.27208526 188.1886356 20.10195903 188.19693873 22.93188477 188.20532227 C24.95171309 188.21489462 26.97153938 188.22490431 28.99136353 188.23532104 C34.49318203 188.26244587 39.99500917 188.28341427 45.49685788 188.30332303 C51.23977832 188.32513602 56.98267189 188.35254756 62.72557068 188.37937927 C73.60884945 188.42936975 84.49214309 188.47428492 95.37545103 188.51740164 C107.76219704 188.56671982 120.1489161 188.62165798 132.53563607 188.67708123 C158.02373225 188.7909988 183.51185427 188.89781644 209 189 C208.67 189.66 208.34 190.32 208 191 C181.47079466 191.04668328 154.94159545 191.08197082 128.41235733 191.10362434 C116.09487791 191.11394487 103.77742399 191.12802002 91.45996094 191.15087891 C80.72633273 191.17078903 69.99272299 191.18371079 59.25907683 191.18817699 C53.57365748 191.1907884 47.88829094 191.19694246 42.20288849 191.21146011 C36.85468099 191.22500645 31.50654822 191.22922862 26.1583252 191.22621536 C24.19268132 191.22676685 22.22703502 191.23076179 20.26140594 191.23841095 C17.58272702 191.24832605 14.90433215 191.24598145 12.22564697 191.24050903 C11.44354489 191.24633472 10.6614428 191.2521604 9.85564065 191.25816262 C5.76171507 191.23547554 3.76738086 190.88369043 0 189 C0 126.63 0 64.26 0 0 Z " fill="#B7B7B7" transform="translate(68,448)"/>
<path d="M0 0 C-0.33 0.99 -0.66 1.98 -1 3 C-1.10522816 5.50820744 -1.15482347 7.98934122 -1.15821838 10.49797058 C-1.16315636 11.2682417 -1.16809434 12.03851282 -1.17318195 12.83212548 C-1.1885766 15.42087767 -1.1969229 18.00960502 -1.20532227 20.59838867 C-1.21489924 22.45102661 -1.22490922 24.30366235 -1.23532104 26.15629578 C-1.2623957 31.19313356 -1.28339141 36.22998075 -1.30332303 41.26685119 C-1.32516679 46.52795999 -1.35256335 51.78903974 -1.37937927 57.05012512 C-1.42932796 67.01606253 -1.47425872 76.98201605 -1.51740164 86.94798499 C-1.56675542 98.292477 -1.62168044 109.63693987 -1.67708123 120.98140371 C-1.79093468 144.32090863 -1.8977664 167.66044149 -2 191 C-3.47619057 189.95744991 -3.47619057 189.95744991 -5 188 C-5.2946004 185.47824718 -5.40491119 183.20303858 -5.38095093 180.68080139 C-5.3856309 179.92968675 -5.39031087 179.1785721 -5.39513266 178.4046964 C-5.40712696 175.88037802 -5.39760833 173.35659809 -5.38818359 170.83227539 C-5.39224737 169.02553489 -5.39758815 167.21879688 -5.40411377 165.4120636 C-5.41781727 160.49884451 -5.41247597 155.58581393 -5.40297651 150.67259145 C-5.39539445 145.5361525 -5.40242158 140.39972997 -5.40713501 135.26329041 C-5.4125973 126.63553971 -5.40538906 118.00786597 -5.39111328 109.38012695 C-5.37479104 99.40023503 -5.38007029 89.42052701 -5.3965925 79.44063956 C-5.41020005 70.87921258 -5.41213044 62.31784102 -5.40427649 53.75640672 C-5.39959529 48.63999857 -5.39898729 43.52367688 -5.40888596 38.40727425 C-5.41754252 33.59656721 -5.41155767 28.78609754 -5.39420319 23.97541618 C-5.39023111 22.20812245 -5.39138467 20.4408088 -5.39799118 18.67352295 C-5.40616856 16.2641383 -5.39593167 13.85551798 -5.38095093 11.44618225 C-5.38764309 10.74394549 -5.39433526 10.04170873 -5.40123022 9.31819206 C-5.36408329 6.24577692 -5.1306476 4.23026497 -3.60119057 1.53461361 C-2 0 -2 0 0 0 Z " fill="#BDBDBD" transform="translate(333,446)"/>
<path d="M0 0 C10.21384495 -0.11588308 20.42753335 -0.20470988 30.64190197 -0.25906086 C35.38495807 -0.28514766 40.1275642 -0.32052875 44.87036133 -0.37719727 C49.4480309 -0.43155009 54.02526787 -0.46142744 58.60323524 -0.47438622 C60.34918338 -0.48362027 62.095108 -0.50165261 63.84087181 -0.52865028 C66.28790699 -0.56498563 68.73315809 -0.56994371 71.18041992 -0.56762695 C71.90115189 -0.58560333 72.62188385 -0.60357971 73.36445618 -0.62210083 C77.1424186 -0.58343573 78.89448403 -0.07866267 81.95324707 2.20166016 C84.21279077 5.29092954 84.61343579 6.57557779 84.56762695 10.34106445 C84.5672493 11.3817659 84.56687164 12.42246735 84.56648254 13.4947052 C84.54067612 14.6063353 84.51486969 15.71796539 84.48828125 16.86328125 C84.48120651 18.01040085 84.47413177 19.15752045 84.46684265 20.33940125 C84.43888813 23.99776838 84.37614286 27.65459663 84.3125 31.3125 C84.28741872 33.79489975 84.26460526 36.27732352 84.24414062 38.75976562 C84.18905778 44.84036746 84.10541898 50.92007378 84 57 C83.01 57.495 83.01 57.495 82 58 C82 57.34 82 56.68 82 56 C50.32 56 18.64 56 -14 56 C-14 55.67 -14 55.34 -14 55 C17.68 55 49.36 55 82 55 C81.87625 46.79125 81.7525 38.5825 81.625 30.125 C81.59100098 27.53285645 81.55700195 24.94071289 81.52197266 22.27001953 C81.48678003 20.22427033 81.45086027 18.17853346 81.4140625 16.1328125 C81.40270264 15.06345459 81.39134277 13.99409668 81.37963867 12.89233398 C81.35957764 11.87743896 81.3395166 10.86254395 81.31884766 9.81689453 C81.30552399 8.93309113 81.29220032 8.04928772 81.2784729 7.13870239 C81.19330996 4.7867175 81.19330996 4.7867175 79 3 C76.47253859 2.78274551 74.05124221 2.68862421 71.52099609 2.68115234 C70.75017197 2.67110672 69.97934784 2.6610611 69.18516541 2.65071106 C66.63126386 2.6197615 64.07746768 2.60281149 61.5234375 2.5859375 C59.75508714 2.56723529 57.98674578 2.5476626 56.21841431 2.5272522 C51.5594208 2.47582479 46.90039831 2.43625602 42.24127197 2.39910889 C37.48889946 2.35913557 32.73664854 2.30801288 27.984375 2.2578125 C18.65633529 2.16092769 9.32822708 2.07656326 0 2 C0 1.34 0 0.68 0 0 Z " fill="#A8A8A8" transform="translate(197,444)"/>
<path d="M0 0 C0.66 0 1.32 0 2 0 C4.17041484 5.29725629 4.29173784 9.97290511 4.265625 15.59765625 C4.26753845 16.50954208 4.2694519 17.42142792 4.27142334 18.36094666 C4.27277965 20.28140541 4.26912206 22.2018735 4.26074219 24.12231445 C4.25002243 27.0563621 4.26066269 29.98979923 4.2734375 32.92382812 C4.27211605 34.79427218 4.26955395 36.66471586 4.265625 38.53515625 C4.26967346 39.40922623 4.27372192 40.2832962 4.27789307 41.18385315 C4.24402141 45.59558236 4.00582891 48.97253695 2 53 C1.64141484 54.32676508 1.2981424 55.65835921 1 57 C0.01 57 -0.98 57 -2 57 C-1.42655063 54.13275314 -1.1385485 53.1385485 1 51 C1.29858768 48.92740055 1.29858768 48.92740055 1.24291992 46.52197266 C1.24599655 45.59405914 1.24907318 44.66614563 1.25224304 43.71011353 C1.24505753 42.70491669 1.23787201 41.69971985 1.23046875 40.6640625 C1.23001053 39.63316498 1.22955231 38.60226746 1.2290802 37.54013062 C1.22605504 35.35616915 1.21816091 33.17220989 1.20581055 30.98828125 C1.187613 27.64575545 1.18530045 24.30350754 1.18554688 20.9609375 C1.18062942 18.84114344 1.17480011 16.72135126 1.16796875 14.6015625 C1.16685593 13.60041412 1.1657431 12.59926575 1.16459656 11.56777954 C1.15821671 10.63356171 1.15183685 9.69934387 1.14526367 8.73681641 C1.14145187 7.91678131 1.13764008 7.09674622 1.13371277 6.25186157 C1.00276331 4.04653694 0.61029148 2.11827462 0 0 Z " fill="#AAAAAA" transform="translate(195,389)"/>
<path d="M0 0 C0.66 0.33 1.32 0.66 2 1 C1.35804688 1.68578125 0.71609375 2.3715625 0.0546875 3.078125 C-4.14800458 9.05457685 -3.61324303 17.89516288 -2.4375 24.9375 C-1.18367813 29.50925864 1.43645304 32.92239126 5 36 C7.10508988 37.178401 7.10508988 37.178401 9 38 C8.67 38.66 8.34 39.32 8 40 C2.17730347 36.47929977 -3.62398769 31.67844187 -5.625 24.875 C-6.43821282 18.64036838 -7.41052348 9.60780335 -3.8203125 4.234375 C-2.6087071 2.76949615 -1.31020565 1.37739568 0 0 Z " fill="#B0B0B0" transform="translate(218,516)"/>
<path d="M0 0 C3.53586014 3.17320782 5.58578031 5.16743695 6 10 C3 8 3 8 2 5 C1.34 4.67 0.68 4.34 0 4 C0 2.68 0 1.36 0 0 Z " fill="#B2B2B2" transform="translate(187,376)"/>
</svg>
